<svg xmlns="http://www.w3.org/2000/svg" viewBox="0 0 200 150">
  <rect width="200" height="150" rx="8" fill="#0a1f0a"/>
  <!-- 영수증 본체 -->
  <rect x="55" y="10" width="90" height="125" fill="#0d2a0d" stroke="#1a4a1a" stroke-width="0.5"/>
  <!-- 상단 지그재그 -->
  <path d="M55 10 L60 15 L65 10 L70 15 L75 10 L80 15 L85 10 L90 15 L95 10 L100 15 L105 10 L110 15 L115 10 L120 15 L125 10 L130 15 L135 10 L140 15 L145 10" fill="#0d2a0d" stroke="none"/>
  <!-- 하단 지그재그 -->
  <path d="M55 135 L60 130 L65 135 L70 130 L75 135 L80 130 L85 135 L90 130 L95 135 L100 130 L105 135 L110 130 L115 135 L120 130 L125 135 L130 130 L135 135 L140 130 L145 135" fill="#0a1f0a" stroke="none"/>
  <!-- 상호명 -->
  <text x="100" y="30" font-family="sans-serif" font-size="8" fill="#4a9a4a" text-anchor="middle" font-weight="bold">영수증</text>
  <line x1="65" y1="35" x2="135" y2="35" stroke="#1a4a1a" stroke-width="0.5" stroke-dasharray="2,2"/>
  <!-- 날짜 -->
  <rect x="70" y="42" width="50" height="3" rx="1.5" fill="#3a8a3a" opacity="0.3"/>
  <line x1="65" y1="50" x2="135" y2="50" stroke="#1a4a1a" stroke-width="0.5"/>
  <!-- 항목 1 -->
  <rect x="70" y="58" width="28" height="3" rx="1.5" fill="#3a8a3a" opacity="0.3"/>
  <rect x="100" y="58" width="25" height="3" rx="1.5" fill="#3a8a3a" opacity="0.3"/>
  <!-- 항목 2 -->
  <rect x="70" y="71" width="30" height="3" rx="1.5" fill="#3a8a3a" opacity="0.3"/>
  <rect x="103" y="71" width="22" height="3" rx="1.5" fill="#3a8a3a" opacity="0.3"/>
  <!-- 항목 3 -->
  <rect x="70" y="84" width="26" height="3" rx="1.5" fill="#3a8a3a" opacity="0.3"/>
  <rect x="98" y="84" width="27" height="3" rx="1.5" fill="#3a8a3a" opacity="0.3"/>
  <!-- 구분선 -->
  <line x1="65" y1="95" x2="135" y2="95" stroke="#2a6a2a" stroke-width="1"/>
  <!-- 합계 -->
  <text x="70" y="108" font-family="sans-serif" font-size="7" fill="#4a9a4a" font-weight="bold">합계</text>
  <rect x="100" y="103" width="25" height="3" rx="1.5" fill="#3a8a3a" opacity="0.4"/>
  <!-- 바코드 느낌 -->
  <g transform="translate(75,115)">
    <rect x="0" y="0" width="1" height="8" fill="#2a5a2a"/>
    <rect x="3" y="0" width="2" height="8" fill="#2a5a2a"/>
    <rect x="7" y="0" width="1" height="8" fill="#2a5a2a"/>
    <rect x="10" y="0" width="3" height="8" fill="#2a5a2a"/>
    <rect x="15" y="0" width="1" height="8" fill="#2a5a2a"/>
    <rect x="18" y="0" width="2" height="8" fill="#2a5a2a"/>
    <rect x="22" y="0" width="1" height="8" fill="#2a5a2a"/>
    <rect x="25" y="0" width="3" height="8" fill="#2a5a2a"/>
    <rect x="30" y="0" width="1" height="8" fill="#2a5a2a"/>
    <rect x="33" y="0" width="2" height="8" fill="#2a5a2a"/>
    <rect x="37" y="0" width="1" height="8" fill="#2a5a2a"/>
    <rect x="40" y="0" width="2" height="8" fill="#2a5a2a"/>
    <rect x="44" y="0" width="1" height="8" fill="#2a5a2a"/>
    <rect x="47" y="0" width="3" height="8" fill="#2a5a2a"/>
  </g>
</svg>