<svg xmlns="http://www.w3.org/2000/svg" viewBox="0 0 200 150">
  <rect width="200" height="150" rx="8" fill="#0a0f1f"/>
  <!-- 메신저 창 프레임 -->
  <rect x="25" y="10" width="150" height="130" rx="6" fill="#0d1228" stroke="#1a2a5a" stroke-width="0.5"/>
  <!-- 헤더바 -->
  <rect x="25" y="10" width="150" height="18" rx="6" fill="#111a3a"/>
  <rect x="25" y="22" width="150" height="6" fill="#111a3a"/>
  <circle cx="38" cy="19" r="5" fill="#1a2a5a"/>
  <text x="48" y="22" font-family="sans-serif" font-size="7" fill="#5a7aba">대화방</text>
  <!-- 왼쪽 버블 1 -->
  <rect x="35" y="36" width="75" height="22" rx="8" fill="#1a2a5a"/>
  <rect x="35" y="36" width="75" height="22" rx="8" ry="8" fill="#1a2a5a"/>
  <polygon points="35,52 30,56 38,50" fill="#1a2a5a"/>
  <rect x="40" y="41" width="55" height="5" rx="2" fill="#0d1228" opacity="0.5"/>
  <rect x="40" y="49" width="35" height="5" rx="2" fill="#0d1228" opacity="0.5"/>
  <rect x="100" y="53" width="12" height="2" rx="1" fill="#4a6a9a" opacity="0.3"/>
  <!-- 오른쪽 버블 -->
  <rect x="90" y="64" width="70" height="22" rx="8" fill="#2a3a6a"/>
  <polygon points="160,80 165,84 157,78" fill="#2a3a6a"/>
  <rect x="95" y="69" width="50" height="5" rx="2" fill="#0d1228" opacity="0.5"/>
  <rect x="95" y="77" width="40" height="5" rx="2" fill="#0d1228" opacity="0.5"/>
  <rect x="82" y="81" width="12" height="2" rx="1" fill="#4a6a9a" opacity="0.3"/>
  <!-- 왼쪽 버블 2 -->
  <rect x="35" y="92" width="80" height="28" rx="8" fill="#1a2a5a"/>
  <polygon points="35,114 30,118 38,112" fill="#1a2a5a"/>
  <rect x="40" y="97" width="60" height="5" rx="2" fill="#0d1228" opacity="0.5"/>
  <rect x="40" y="105" width="50" height="5" rx="2" fill="#0d1228" opacity="0.5"/>
  <rect x="40" y="113" width="30" height="5" rx="2" fill="#0d1228" opacity="0.5"/>
  <rect x="105" y="115" width="12" height="2" rx="1" fill="#4a6a9a" opacity="0.3"/>
</svg>