<svg xmlns="http://www.w3.org/2000/svg" viewBox="0 0 200 150">
  <rect width="200" height="150" rx="8" fill="#0a0a1f"/>
  <!-- 화면 뚜껑 -->
  <rect x="25" y="8" width="150" height="100" rx="6" fill="#111128" stroke="#2a2a5a" stroke-width="1"/>
  <!-- 화면 안쪽 -->
  <rect x="30" y="13" width="140" height="88" rx="2" fill="#0d0d22"/>
  <!-- 카메라 -->
  <circle cx="100" cy="10" r="1.5" fill="#1a1a3a"/>
  <!-- 이메일/문서 UI -->
  <!-- 사이드바 -->
  <rect x="30" y="13" width="30" height="88" fill="#101030"/>
  <rect x="33" y="18" width="24" height="5" rx="1" fill="#1a1a4a"/>
  <rect x="33" y="26" width="24" height="4" rx="1" fill="#151540" opacity="0.7"/>
  <rect x="33" y="33" width="24" height="4" rx="1" fill="#151540" opacity="0.5"/>
  <rect x="33" y="40" width="24" height="4" rx="1" fill="#151540" opacity="0.5"/>
  <rect x="33" y="47" width="24" height="4" rx="1" fill="#151540" opacity="0.5"/>
  <!-- 메인 영역 헤더 -->
  <rect x="62" y="13" width="108" height="14" fill="#121235"/>
  <rect x="66" y="17" width="50" height="5" rx="1" fill="#1a1a4a"/>
  <rect x="140" y="17" width="20" height="5" rx="2" fill="#2a2a6a"/>
  <!-- 메일/문서 내용 줄 -->
  <rect x="66" y="32" width="80" height="4" rx="1" fill="#151540" opacity="0.8"/>
  <rect x="66" y="40" width="96" height="4" rx="1" fill="#151540" opacity="0.6"/>
  <rect x="66" y="48" width="90" height="4" rx="1" fill="#151540" opacity="0.6"/>
  <rect x="66" y="56" width="98" height="4" rx="1" fill="#151540" opacity="0.6"/>
  <rect x="66" y="64" width="85" height="4" rx="1" fill="#151540" opacity="0.5"/>
  <rect x="66" y="72" width="92" height="4" rx="1" fill="#151540" opacity="0.5"/>
  <rect x="66" y="80" width="70" height="4" rx="1" fill="#151540" opacity="0.4"/>
  <rect x="66" y="88" width="88" height="4" rx="1" fill="#151540" opacity="0.4"/>
  <!-- 키보드 부분 -->
  <path d="M15 110 L25 108 L175 108 L185 110 L185 118 Q185 122 180 122 L20 122 Q15 122 15 118 Z" fill="#111128" stroke="#2a2a5a" stroke-width="0.5"/>
  <!-- 키보드 키 (간략) -->
  <g opacity="0.5">
    <rect x="30" y="110" width="6" height="4" rx="0.5" fill="#1a1a3a"/>
    <rect x="38" y="110" width="6" height="4" rx="0.5" fill="#1a1a3a"/>
    <rect x="46" y="110" width="6" height="4" rx="0.5" fill="#1a1a3a"/>
    <rect x="54" y="110" width="6" height="4" rx="0.5" fill="#1a1a3a"/>
    <rect x="62" y="110" width="6" height="4" rx="0.5" fill="#1a1a3a"/>
    <rect x="70" y="110" width="6" height="4" rx="0.5" fill="#1a1a3a"/>
    <rect x="78" y="110" width="6" height="4" rx="0.5" fill="#1a1a3a"/>
    <rect x="86" y="110" width="6" height="4" rx="0.5" fill="#1a1a3a"/>
    <rect x="94" y="110" width="6" height="4" rx="0.5" fill="#1a1a3a"/>
    <rect x="102" y="110" width="6" height="4" rx="0.5" fill="#1a1a3a"/>
    <rect x="110" y="110" width="6" height="4" rx="0.5" fill="#1a1a3a"/>
    <rect x="118" y="110" width="6" height="4" rx="0.5" fill="#1a1a3a"/>
    <rect x="126" y="110" width="6" height="4" rx="0.5" fill="#1a1a3a"/>
    <rect x="134" y="110" width="6" height="4" rx="0.5" fill="#1a1a3a"/>
    <rect x="142" y="110" width="6" height="4" rx="0.5" fill="#1a1a3a"/>
    <rect x="150" y="110" width="6" height="4" rx="0.5" fill="#1a1a3a"/>
    <rect x="158" y="110" width="6" height="4" rx="0.5" fill="#1a1a3a"/>
  </g>
  <g opacity="0.4">
    <rect x="34" y="116" width="6" height="4" rx="0.5" fill="#1a1a3a"/>
    <rect x="42" y="116" width="6" height="4" rx="0.5" fill="#1a1a3a"/>
    <rect x="50" y="116" width="6" height="4" rx="0.5" fill="#1a1a3a"/>
    <rect x="58" y="116" width="6" height="4" rx="0.5" fill="#1a1a3a"/>
    <rect x="66" y="116" width="40" height="4" rx="0.5" fill="#1a1a3a"/>
    <rect x="108" y="116" width="6" height="4" rx="0.5" fill="#1a1a3a"/>
    <rect x="116" y="116" width="6" height="4" rx="0.5" fill="#1a1a3a"/>
    <rect x="124" y="116" width="6" height="4" rx="0.5" fill="#1a1a3a"/>
    <rect x="132" y="116" width="6" height="4" rx="0.5" fill="#1a1a3a"/>
    <rect x="140" y="116" width="6" height="4" rx="0.5" fill="#1a1a3a"/>
    <rect x="148" y="116" width="6" height="4" rx="0.5" fill="#1a1a3a"/>
  </g>
  <!-- 트랙패드 -->
  <rect x="80" y="125" width="40" height="18" rx="3" fill="#0d0d22" stroke="#1a1a3a" stroke-width="0.5"/>
</svg>