<svg xmlns="http://www.w3.org/2000/svg" viewBox="0 0 200 150">
  <rect width="200" height="150" rx="8" fill="#0a0a1f"/>
  <!-- 스마트폰 외곽 -->
  <rect x="60" y="5" width="80" height="140" rx="12" fill="#111128" stroke="#2a2a5a" stroke-width="1"/>
  <!-- 노치 -->
  <rect x="85" y="5" width="30" height="8" rx="4" fill="#0a0a1f"/>
  <circle cx="100" cy="9" r="2" fill="#1a1a3a"/>
  <!-- 화면 영역 -->
  <rect x="65" y="16" width="70" height="118" rx="2" fill="#0d0d22"/>
  <!-- 상태바 -->
  <rect x="72" y="22" width="14" height="2" rx="1" fill="#4a4a8a" opacity="0.3"/>
  <!-- 와이파이 아이콘 -->
  <path d="M118 20 Q122 17 126 20" stroke="#4a4a8a" stroke-width="0.6" fill="none"/>
  <path d="M120 22 Q122 20 124 22" stroke="#4a4a8a" stroke-width="0.6" fill="none"/>
  <circle cx="122" cy="23" r="0.8" fill="#4a4a8a"/>
  <!-- 배터리 -->
  <rect x="128" y="19" width="4" height="6" rx="1" fill="none" stroke="#4a4a8a" stroke-width="0.5"/>
  <rect x="129" y="20" width="2" height="4" rx="0.5" fill="#4a9a4a"/>
  <!-- 앱 상단바 -->
  <rect x="65" y="28" width="70" height="12" fill="#151538"/>
  <circle cx="74" cy="34" r="3" fill="#2a2a5a"/>
  <rect x="80" y="32" width="30" height="4" rx="1" fill="#1a1a3a"/>
  <!-- 콘텐츠 카드 1 -->
  <rect x="70" y="46" width="60" height="24" rx="3" fill="#151538" stroke="#1a1a3a" stroke-width="0.3"/>
  <rect x="74" y="50" width="40" height="4" rx="1" fill="#1a1a3a"/>
  <rect x="74" y="57" width="50" height="4" rx="1" fill="#1a1a3a" opacity="0.6"/>
  <rect x="74" y="64" width="30" height="3" rx="1" fill="#1a1a3a" opacity="0.4"/>
  <!-- 콘텐츠 카드 2 -->
  <rect x="70" y="76" width="60" height="24" rx="3" fill="#151538" stroke="#1a1a3a" stroke-width="0.3"/>
  <rect x="74" y="80" width="45" height="4" rx="1" fill="#1a1a3a"/>
  <rect x="74" y="87" width="50" height="4" rx="1" fill="#1a1a3a" opacity="0.6"/>
  <rect x="74" y="94" width="35" height="3" rx="1" fill="#1a1a3a" opacity="0.4"/>
  <!-- 하단 네비바 -->
  <rect x="65" y="118" width="70" height="16" fill="#151538"/>
  <circle cx="80" cy="126" r="3" fill="#2a2a5a"/>
  <circle cx="100" cy="126" r="3" fill="#3a3a7a"/>
  <circle cx="120" cy="126" r="3" fill="#2a2a5a"/>
  <!-- 홈 인디케이터 -->
  <rect x="90" y="137" width="20" height="3" rx="1.5" fill="#2a2a5a"/>
</svg>