<svg xmlns="http://www.w3.org/2000/svg" viewBox="0 0 200 150">
  <rect width="200" height="150" rx="8" fill="#1f150a"/>
  <!-- 달력 프레임 -->
  <rect x="25" y="10" width="150" height="130" rx="4" fill="#241a0f" stroke="#3a2a15" stroke-width="0.5"/>
  <!-- 달력 헤더 -->
  <rect x="25" y="10" width="150" height="22" rx="4" fill="#2a2010"/>
  <rect x="25" y="26" width="150" height="6" fill="#2a2010"/>
  <rect x="72" y="20" width="56" height="4" rx="2" fill="#aa8a4a" opacity="0.3"/>
  <!-- 요일 헤더 -->
  <text x="39" y="42" font-family="sans-serif" font-size="5" fill="#aa4a2a" text-anchor="middle">일</text>
  <text x="57" y="42" font-family="sans-serif" font-size="5" fill="#8a7a4a" text-anchor="middle">월</text>
  <text x="75" y="42" font-family="sans-serif" font-size="5" fill="#8a7a4a" text-anchor="middle">화</text>
  <text x="93" y="42" font-family="sans-serif" font-size="5" fill="#8a7a4a" text-anchor="middle">수</text>
  <text x="111" y="42" font-family="sans-serif" font-size="5" fill="#8a7a4a" text-anchor="middle">목</text>
  <text x="129" y="42" font-family="sans-serif" font-size="5" fill="#8a7a4a" text-anchor="middle">금</text>
  <text x="147" y="42" font-family="sans-serif" font-size="5" fill="#5a6aaa" text-anchor="middle">토</text>
  <line x1="30" y1="45" x2="170" y2="45" stroke="#3a2a15" stroke-width="0.3"/>
  <!-- 주1: 1(금)~2(토) -->
  <text x="129" y="57" font-family="sans-serif" font-size="5" fill="#6a5a3a" opacity="0.5" text-anchor="middle">1</text>
  <text x="147" y="57" font-family="sans-serif" font-size="5" fill="#6a5a3a" opacity="0.5" text-anchor="middle">2</text>
  <!-- 주2: 3~9 -->
  <text x="39" y="70" font-family="sans-serif" font-size="5" fill="#6a5a3a" opacity="0.5" text-anchor="middle">3</text>
  <text x="57" y="70" font-family="sans-serif" font-size="5" fill="#6a5a3a" opacity="0.5" text-anchor="middle">4</text>
  <path d="M53 72 L56 75 L62 67" stroke="#4a9a4a" stroke-width="1.2" fill="none"/>
  <text x="75" y="70" font-family="sans-serif" font-size="5" fill="#6a5a3a" opacity="0.5" text-anchor="middle">5</text>
  <path d="M71 72 L74 75 L80 67" stroke="#4a9a4a" stroke-width="1.2" fill="none"/>
  <text x="93" y="70" font-family="sans-serif" font-size="5" fill="#6a5a3a" opacity="0.5" text-anchor="middle">6</text>
  <path d="M89 72 L92 75 L98 67" stroke="#4a9a4a" stroke-width="1.2" fill="none"/>
  <text x="111" y="70" font-family="sans-serif" font-size="5" fill="#6a5a3a" opacity="0.5" text-anchor="middle">7</text>
  <path d="M107 72 L110 75 L116 67" stroke="#4a9a4a" stroke-width="1.2" fill="none"/>
  <text x="129" y="70" font-family="sans-serif" font-size="5" fill="#6a5a3a" opacity="0.5" text-anchor="middle">8</text>
  <path d="M125 72 L128 75 L134 67" stroke="#4a9a4a" stroke-width="1.2" fill="none"/>
  <text x="147" y="70" font-family="sans-serif" font-size="5" fill="#6a5a3a" opacity="0.5" text-anchor="middle">9</text>
  <!-- 주3: 10~16 -->
  <text x="39" y="83" font-family="sans-serif" font-size="5" fill="#6a5a3a" opacity="0.5" text-anchor="middle">10</text>
  <text x="57" y="83" font-family="sans-serif" font-size="5" fill="#6a5a3a" opacity="0.5" text-anchor="middle">11</text>
  <path d="M53 85 L56 88 L62 80" stroke="#4a9a4a" stroke-width="1.2" fill="none"/>
  <text x="75" y="83" font-family="sans-serif" font-size="5" fill="#6a5a3a" opacity="0.5" text-anchor="middle">12</text>
  <path d="M71 85 L74 88 L80 80" stroke="#4a9a4a" stroke-width="1.2" fill="none"/>
  <text x="93" y="83" font-family="sans-serif" font-size="5" fill="#6a5a3a" opacity="0.5" text-anchor="middle">13</text>
  <path d="M89 85 L92 88 L98 80" stroke="#4a9a4a" stroke-width="1.2" fill="none"/>
  <text x="111" y="83" font-family="sans-serif" font-size="5" fill="#6a5a3a" opacity="0.5" text-anchor="middle">14</text>
  <path d="M107 85 L110 88 L116 80" stroke="#4a9a4a" stroke-width="1.2" fill="none"/>
  <text x="129" y="83" font-family="sans-serif" font-size="5" fill="#6a5a3a" opacity="0.5" text-anchor="middle">15</text>
  <text x="147" y="83" font-family="sans-serif" font-size="5" fill="#6a5a3a" opacity="0.5" text-anchor="middle">16</text>
  <!-- 주4: 17~23 -->
  <text x="39" y="96" font-family="sans-serif" font-size="5" fill="#6a5a3a" opacity="0.5" text-anchor="middle">17</text>
  <text x="57" y="96" font-family="sans-serif" font-size="5" fill="#6a5a3a" opacity="0.5" text-anchor="middle">18</text>
  <path d="M53 98 L56 101 L62 93" stroke="#4a9a4a" stroke-width="1.2" fill="none"/>
  <text x="75" y="96" font-family="sans-serif" font-size="5" fill="#6a5a3a" opacity="0.5" text-anchor="middle">19</text>
  <line x1="70" y1="95" x2="80" y2="100" stroke="#aa4a2a" stroke-width="0.8"/>
  <text x="93" y="96" font-family="sans-serif" font-size="5" fill="#6a5a3a" opacity="0.5" text-anchor="middle">20</text>
  <path d="M89 98 L92 101 L98 93" stroke="#4a9a4a" stroke-width="1.2" fill="none"/>
  <text x="111" y="96" font-family="sans-serif" font-size="5" fill="#6a5a3a" opacity="0.5" text-anchor="middle">21</text>
  <path d="M107 98 L110 101 L116 93" stroke="#4a9a4a" stroke-width="1.2" fill="none"/>
  <text x="129" y="96" font-family="sans-serif" font-size="5" fill="#6a5a3a" opacity="0.5" text-anchor="middle">22</text>
  <path d="M125 98 L128 101 L134 93" stroke="#4a9a4a" stroke-width="1.2" fill="none"/>
  <text x="147" y="96" font-family="sans-serif" font-size="5" fill="#6a5a3a" opacity="0.5" text-anchor="middle">23</text>
  <!-- 범례 -->
  <line x1="35" y1="118" x2="170" y2="118" stroke="#3a2a15" stroke-width="0.3"/>
  <path d="M38 124 L41 127 L47 121" stroke="#4a9a4a" stroke-width="1.2" fill="none"/>
  <text x="52" y="126" font-family="sans-serif" font-size="5" fill="#6a5a3a">출근</text>
  <circle cx="80" cy="124" r="4" fill="none" stroke="#aa4a2a" stroke-width="0.8"/>
  <text x="88" y="126" font-family="sans-serif" font-size="5" fill="#6a5a3a">주목일</text>
  <line x1="115" y1="122" x2="125" y2="127" stroke="#aa4a2a" stroke-width="0.8"/>
  <text x="130" y="126" font-family="sans-serif" font-size="5" fill="#6a5a3a">결근</text>
</svg>